<svg width="20" height="21" viewBox="0 0 20 21" fill="none" xmlns="http://www.w3.org/2000/svg">
<path d="M2.72746 0.500256C2.49485 0.500256 2.26199 0.588861 2.08472 0.766584L0.266584 2.58472C-0.0888614 2.94017 -0.0888614 3.51566 0.266584 3.8702L6.89639 10.5L0.266584 17.1298C-0.0888614 17.4852 -0.0888614 18.0607 0.266584 18.4153L2.08472 20.2334C2.44017 20.5889 3.01566 20.5889 3.3702 20.2334L10 13.6036L16.6298 20.2334C16.9843 20.5889 17.5607 20.5889 17.9153 20.2334L19.7334 18.4153C20.0889 18.0598 20.0889 17.4843 19.7334 17.1298L13.1036 10.5L19.7334 3.8702C20.0889 3.51566 20.0889 2.93926 19.7334 2.58472L17.9153 0.766584C17.5598 0.411139 16.9843 0.411139 16.6298 0.766584L10 7.39639L3.3702 0.766584C3.19248 0.588861 2.96007 0.500256 2.72746 0.500256Z" fill="white"/>
</svg>
