<?xml version="1.0" encoding="UTF-8"?>
<svg id="Capa_1" data-name="Capa 1" xmlns="http://www.w3.org/2000/svg" viewBox="0 0 500 400.89">
  <defs>
    <style>
      .cls-1 {
        fill: #000;
        stroke-width: 0px;
      }
    </style>
  </defs>
  <path class="cls-1" d="M212.65,275.29c-19.47-.01-38.94.21-58.4-.08-17.21-.25-26.9-8.81-27.25-25.93-.66-32.64-.69-65.32.03-97.96.39-17.52,10.11-25.68,29.01-25.83,37.88-.3,75.77-.56,113.64.12,12.57.23,16.43-4.1,16.09-16.34-.72-25.79-.06-51.61-.26-77.42-.1-12.98,2.45-24.39,15.89-29.73,13.16-5.23,21.71,2.33,30.11,11.18,50.73,53.44,101.67,106.67,152.49,160.02,21.16,22.21,21.28,31.37.57,53.16-51.11,53.79-102.34,107.47-153.41,161.3-8.41,8.87-17.13,15.99-30.28,10.55-13.53-5.61-15.48-17.14-15.39-29.98.19-26.33-.36-52.68.22-79,.24-11.13-3.8-14.67-14.69-14.26-19.44.72-38.93.2-58.39.19Z"/>
  <path class="cls-1" d="M.15,199.27c0-32.63-.21-65.26.04-97.88C.66,42.23,42.82.37,101.95.12,125.08.02,148.21.4,171.34,0c13.14-.22,19.68,5,19.2,18.6-.37,10.51-.21,21.05-.08,31.57.15,11.84-5.25,17.11-17.32,16.89-23.12-.42-46.26-.2-69.38-.08-27.49.14-40.09,12.02-40.2,38.98-.26,63.15-.25,126.3,0,189.44.1,25.67,12.26,37.56,37.75,37.79,23.65.21,47.31.25,70.96.03,12.37-.11,18.38,5.07,18.28,17.89-.45,55.41,5.84,49.26-46.65,49.45-17.87.06-35.82.89-53.59-.52C38.6,395.99,1.04,354.88.25,301.88c-.51-34.2-.1-68.41-.1-102.61Z"/>
</svg>